<svg width="143" height="45" viewBox="0 0 143 45" fill="none" xmlns="http://www.w3.org/2000/svg">
<g clip-path="url(#clip0_48_989)">
<path d="M7.79387 12.0662C6.20017 13.7204 5.2245 15.8727 5.03083 18.1615C4.83717 20.4502 5.43734 22.7359 6.73044 24.6343C8.02355 26.5326 9.93076 27.928 12.1315 28.5858C14.3323 29.2435 16.6924 29.1237 18.8151 28.2463C18.9589 27.3088 18.6439 26.4087 18.5151 26.0938C18.2276 25.3937 17.2801 24.1975 15.6989 22.5387C15.2764 22.095 15.3039 21.7537 15.4551 20.7425L15.4714 20.6288C15.5739 19.9363 15.7464 19.5262 18.0776 19.1562C19.2626 18.9688 19.5739 19.4413 20.0051 20.0975L20.1501 20.3125C20.5601 20.9125 20.8639 21.05 21.3226 21.2575C21.5289 21.3512 21.7851 21.47 22.1289 21.6637C22.9439 22.13 22.9439 22.6562 22.9439 23.8088V23.94C22.9439 24.4287 22.8964 24.8587 22.8214 25.2325C23.7806 24.0287 24.449 22.6197 24.7746 21.1152C25.1002 19.6108 25.0742 18.0515 24.6986 16.5588C24.3231 15.0661 23.608 13.6801 22.6092 12.5089C21.6105 11.3377 20.3548 10.4128 18.9401 9.80625C18.2489 10.2725 17.3001 10.9337 16.9689 11.3875C16.8001 11.6187 16.5601 12.8025 15.7814 12.9C15.5789 12.925 15.3051 12.9075 15.0151 12.8888C14.2376 12.8387 13.1751 12.77 12.8351 13.6938C12.6189 14.2787 12.5814 15.8687 13.2801 16.6937C13.3926 16.825 13.4139 17.0687 13.3376 17.3425C13.2376 17.7013 13.0364 17.92 12.9726 17.965C12.8526 17.895 12.6126 17.6162 12.4489 17.4275C12.0576 16.9712 11.5676 16.4025 10.9351 16.2275C10.7051 16.1637 10.4526 16.1112 10.2064 16.0588C9.52012 15.915 8.74387 15.7513 8.56262 15.3663C8.43012 15.0838 8.43137 14.695 8.43137 14.285C8.43137 13.7637 8.43137 13.175 8.17637 12.6037C8.08772 12.3999 7.95744 12.2168 7.79387 12.0662ZM15.0001 31.5C8.09637 31.5 2.50012 25.9037 2.50012 19C2.50012 12.0963 8.09637 6.5 15.0001 6.5C21.9039 6.5 27.5001 12.0963 27.5001 19C27.5001 25.9037 21.9039 31.5 15.0001 31.5Z" fill="white"/>
</g>
<path d="M63.2 1.5L57.525 19H52.225L48.875 8.35L45.375 19H40.075L34.4 1.5H39.5L43.025 12.675L46.725 1.5H51.275L54.8 12.775L58.475 1.5H63.2ZM70.5477 19.225C69.0977 19.225 67.7893 18.925 66.6227 18.325C65.456 17.725 64.5393 16.8917 63.8727 15.825C63.2227 14.7583 62.8977 13.55 62.8977 12.2C62.8977 10.8667 63.2227 9.66667 63.8727 8.6C64.5393 7.53333 65.4477 6.70833 66.5977 6.125C67.7643 5.525 69.081 5.225 70.5477 5.225C72.0143 5.225 73.331 5.525 74.4977 6.125C75.6643 6.70833 76.5727 7.53333 77.2227 8.6C77.8727 9.65 78.1977 10.85 78.1977 12.2C78.1977 13.55 77.8727 14.7583 77.2227 15.825C76.5727 16.8917 75.6643 17.725 74.4977 18.325C73.331 18.925 72.0143 19.225 70.5477 19.225ZM70.5477 15.45C71.381 15.45 72.0643 15.1667 72.5977 14.6C73.131 14.0167 73.3977 13.2167 73.3977 12.2C73.3977 11.2 73.131 10.4167 72.5977 9.85C72.0643 9.28333 71.381 9 70.5477 9C69.7143 9 69.031 9.28333 68.4977 9.85C67.9643 10.4167 67.6977 11.2 67.6977 12.2C67.6977 13.2167 67.9643 14.0167 68.4977 14.6C69.031 15.1667 69.7143 15.45 70.5477 15.45ZM84.923 7.075C85.4064 6.45833 86.0314 6 86.798 5.7C87.5814 5.38333 88.473 5.225 89.473 5.225V9.5C89.0397 9.45 88.6814 9.425 88.398 9.425C87.3814 9.425 86.5814 9.7 85.998 10.25C85.4314 10.8 85.148 11.6417 85.148 12.775V19H80.398V5.45H84.923V7.075ZM91.4332 0.449999H96.1832V19H91.4332V0.449999ZM113.67 0.449999V19H109.145V17.65C108.262 18.7 106.937 19.225 105.17 19.225C103.937 19.225 102.812 18.9417 101.795 18.375C100.778 17.7917 99.9701 16.9667 99.3701 15.9C98.7868 14.8333 98.4951 13.6 98.4951 12.2C98.4951 10.8 98.7868 9.575 99.3701 8.525C99.9701 7.45833 100.778 6.64167 101.795 6.075C102.812 5.50833 103.937 5.225 105.17 5.225C106.787 5.225 108.037 5.69167 108.92 6.625V0.449999H113.67ZM106.17 15.45C106.987 15.45 107.662 15.1667 108.195 14.6C108.728 14.0167 108.995 13.2167 108.995 12.2C108.995 11.2 108.728 10.4167 108.195 9.85C107.678 9.28333 107.003 9 106.17 9C105.337 9 104.653 9.28333 104.12 9.85C103.587 10.4167 103.32 11.2 103.32 12.2C103.32 13.2167 103.587 14.0167 104.12 14.6C104.653 15.1667 105.337 15.45 106.17 15.45ZM57.0754 36.175V40H43.0254V22.5H56.7504V26.325H47.9254V29.275H55.7004V32.975H47.9254V36.175H57.0754ZM68.124 40L65.699 36.45L63.099 40H57.949L63.099 33.225L58.099 26.45H63.449L65.849 29.875L68.349 26.45H73.374L68.374 33.05L73.549 40H68.124ZM83.5275 26.225C84.7609 26.225 85.8775 26.5167 86.8775 27.1C87.8942 27.6667 88.6942 28.4833 89.2775 29.55C89.8775 30.6 90.1775 31.825 90.1775 33.225C90.1775 34.625 89.8775 35.8583 89.2775 36.925C88.6942 37.975 87.8942 38.7917 86.8775 39.375C85.8775 39.9417 84.7609 40.225 83.5275 40.225C81.9442 40.225 80.6859 39.75 79.7525 38.8V44.85H75.0025V26.45H79.5275V27.8C80.4109 26.75 81.7442 26.225 83.5275 26.225ZM82.5275 36.45C83.3609 36.45 84.0442 36.1667 84.5775 35.6C85.1109 35.0167 85.3775 34.225 85.3775 33.225C85.3775 32.225 85.1109 31.4417 84.5775 30.875C84.0442 30.2917 83.3609 30 82.5275 30C81.6942 30 81.0109 30.2917 80.4775 30.875C79.9442 31.4417 79.6775 32.225 79.6775 33.225C79.6775 34.225 79.9442 35.0167 80.4775 35.6C81.0109 36.1667 81.6942 36.45 82.5275 36.45ZM92.3854 21.45H97.1354V40H92.3854V21.45ZM107.022 40.225C105.572 40.225 104.264 39.925 103.097 39.325C101.931 38.725 101.014 37.8917 100.347 36.825C99.6973 35.7583 99.3723 34.55 99.3723 33.2C99.3723 31.8667 99.6973 30.6667 100.347 29.6C101.014 28.5333 101.922 27.7083 103.072 27.125C104.239 26.525 105.556 26.225 107.022 26.225C108.489 26.225 109.806 26.525 110.972 27.125C112.139 27.7083 113.047 28.5333 113.697 29.6C114.347 30.65 114.672 31.85 114.672 33.2C114.672 34.55 114.347 35.7583 113.697 36.825C113.047 37.8917 112.139 38.725 110.972 39.325C109.806 39.925 108.489 40.225 107.022 40.225ZM107.022 36.45C107.856 36.45 108.539 36.1667 109.072 35.6C109.606 35.0167 109.872 34.2167 109.872 33.2C109.872 32.2 109.606 31.4167 109.072 30.85C108.539 30.2833 107.856 30 107.022 30C106.189 30 105.506 30.2833 104.972 30.85C104.439 31.4167 104.172 32.2 104.172 33.2C104.172 34.2167 104.439 35.0167 104.972 35.6C105.506 36.1667 106.189 36.45 107.022 36.45ZM121.398 28.075C121.881 27.4583 122.506 27 123.273 26.7C124.056 26.3833 124.948 26.225 125.948 26.225V30.5C125.514 30.45 125.156 30.425 124.873 30.425C123.856 30.425 123.056 30.7 122.473 31.25C121.906 31.8 121.623 32.6417 121.623 33.775V40H116.873V26.45H121.398V28.075ZM141.636 33.25C141.636 33.2833 141.611 33.675 141.561 34.425H131.711C131.911 35.125 132.294 35.6667 132.861 36.05C133.444 36.4167 134.169 36.6 135.036 36.6C135.686 36.6 136.244 36.5083 136.711 36.325C137.194 36.1417 137.677 35.8417 138.161 35.425L140.661 38.025C139.344 39.4917 137.419 40.225 134.886 40.225C133.302 40.225 131.911 39.925 130.711 39.325C129.511 38.725 128.577 37.8917 127.911 36.825C127.261 35.7583 126.936 34.55 126.936 33.2C126.936 31.8667 127.252 30.675 127.886 29.625C128.536 28.5583 129.427 27.725 130.561 27.125C131.694 26.525 132.969 26.225 134.386 26.225C135.736 26.225 136.961 26.5083 138.061 27.075C139.161 27.625 140.027 28.4333 140.661 29.5C141.311 30.55 141.636 31.8 141.636 33.25ZM134.411 29.6C133.677 29.6 133.061 29.8083 132.561 30.225C132.077 30.6417 131.769 31.2083 131.636 31.925H137.186C137.052 31.2083 136.736 30.6417 136.236 30.225C135.752 29.8083 135.144 29.6 134.411 29.6Z" fill="white"/>
<defs>
<clipPath id="clip0_48_989">
<rect width="30" height="30" fill="white" transform="translate(0 4)"/>
</clipPath>
</defs>
</svg>
